<?xml version="1.0"?>
<svg version="1.1" xmlns="http://www.w3.org/2000/svg" width="1773" height="887">

<path d="M0 0 C1.12148438 0.30744141 1.12148438 0.30744141 2.265625 0.62109375 C3.25046875 0.89050781 4.2353125 1.15992188 5.25 1.4375 C6.71179688 1.83775391 6.71179688 1.83775391 8.203125 2.24609375 C10.46372653 2.85544584 12.72622009 3.44238255 15 4 C15.08636719 4.65484375 15.17273438 5.3096875 15.26171875 5.984375 C16.71934775 15.45227711 19.40164673 24.80826963 26 32 C38.90015291 41.42549872 52.33611444 45.16717938 68 44 C68.84304688 43.96261719 69.68609375 43.92523438 70.5546875 43.88671875 C78.20810088 42.94756363 84.43431152 36.96963081 90 32 C90.62390625 31.06285156 91.2478125 30.12570312 91.890625 29.16015625 C94 27 94 27 97.71484375 26.765625 C99.12517235 26.90069872 100.53310132 27.06308823 101.9375 27.25 C106.48264142 27.75825596 110.51772116 28.17996387 115 27 C118.4375 26.4375 118.4375 26.4375 122 27 C123.78651947 28.83096025 125.12486538 30.78031147 126.55078125 32.90234375 C131.37510813 39.88526433 139.82348164 43.47950892 148 45 C161.5948708 45.27464385 174.99393336 40.96264995 186 33 C187.00289062 32.28585937 188.00578125 31.57171875 189.0390625 30.8359375 C192.69474069 27.73709981 194.14575531 24.02859337 195.8125 19.625 C196.11091797 18.89539063 196.40933594 18.16578125 196.71679688 17.4140625 C198.49139708 12.92748861 199.51248207 8.79920246 200 4 C204.71993935 2.23002275 209.02989461 1.56991911 214 1 C214.10163607 8.41972114 214.17156495 15.83926192 214.21972656 23.25952148 C214.23980963 25.78237619 214.26708157 28.30518453 214.30175781 30.82788086 C214.35041913 34.45958923 214.37300265 38.09068071 214.390625 41.72265625 C214.41127014 42.84583755 214.43191528 43.96901886 214.45318604 45.12623596 C214.45605911 55.21182778 211.04620216 60.34192379 204.31640625 67.69140625 C200.17411808 71.81972381 195.57006344 75.36141446 191 79 C182.32529615 85.9519982 175.00726294 92.52270319 169 102 C164.56829827 100.48103632 160.96975924 98.07360191 157.1875 95.375 C156.59001953 94.95476562 155.99253906 94.53453125 155.37695312 94.1015625 C153.91479435 93.07220272 152.45695101 92.0367177 151 91 C151 91.66 151 92.32 151 93 C151.99 93.33 152.98 93.66 154 94 C155.59742627 95.95044865 157.02742581 97.85883343 158.4375 99.9375 C158.83783447 100.51927002 159.23816895 101.10104004 159.65063477 101.70043945 C162.49762986 105.95724182 164.59767356 110.20859202 166.24609375 115.07421875 C166.92811956 117.1952387 166.92811956 117.1952387 169 119 C171.04838047 118.92451501 171.04838047 118.92451501 173 118 C174.55134362 115.5350544 175.88131648 113.15153712 177.1875 110.5625 C182.47554595 100.65525185 189.14927972 91.81121628 199 86 C199.66 86 200.32 86 201 86 C199.56939977 91.1129953 198.02214563 96.10586898 195.9921875 101.015625 C192.01302358 110.76253885 189.48003414 119.09470444 189.5 129.6875 C189.47871666 139.09801222 187.80863604 144.1684006 181 151 C180.24589844 151.90105469 179.49179687 152.80210937 178.71484375 153.73046875 C175.45366525 157.60696394 172.60510712 160.96499431 168 163.1875 C167.01 163.785625 166.02 164.38375 165 165 C164.87109375 166.06605469 164.7421875 167.13210938 164.609375 168.23046875 C163.89502843 172.64934335 162.16588311 174.92163546 159.25 178.125 C158.38890625 179.11757813 157.5278125 180.11015625 156.640625 181.1328125 C155.80881714 181.97235474 155.80881714 181.97235474 154.96020508 182.82885742 C152.83218359 185.07502866 152.83218359 185.07502866 150.8581543 188.2590332 C147.05127236 193.54402238 143.20237244 197.20727715 136.74041748 198.80688477 C128.4452391 199.99742382 120.1725805 200.07841757 111.80981445 199.96948242 C108.81488532 199.93265253 105.8353389 199.96696907 102.84204102 200.07202148 C75.62263713 201.02252107 75.62263713 201.02252107 65.53569031 191.76332092 C62.03287668 188.0452028 58.93019767 184.18054383 56 180 C55.5006041 179.32102158 55.00120819 178.64204315 54.48667908 177.94248962 C52.22607055 174.85540421 50.43466079 172.0589348 49.1875 168.4375 C47.34785103 164.06649405 45.08544399 162.25436738 41.21484375 159.65234375 C36.86645969 156.4083112 33.43700993 152.16929383 30 148 C29.21689453 147.13217896 29.21689453 147.13217896 28.41796875 146.24682617 C23.92775467 140.93336174 23.15607181 136.91403958 23.25 130.0625 C23.2057905 120.43219745 21.86833573 112.86493604 18 104 C16.75520726 99.95251442 16 96.26693053 16 92 C15.34 92 14.68 92 14 92 C13.67 89.36 13.34 86.72 13 84 C20.86135397 87.69206329 25.17739778 93.10934959 29.125 100.6875 C29.55095459 101.47970947 29.97690918 102.27191895 30.41577148 103.08813477 C34.02158734 109.8615477 37.56896231 116.70688692 40 124 C47.99875923 120.47327434 54.10926063 112.94418283 60.1875 106.8125 C69.37802121 97.58712771 69.37802121 97.58712771 73 95 C84.20485322 96.09963026 95.78883537 102.85922358 105 109 C107.71858784 109.31581711 109.31340625 109.47109352 111.60546875 107.8984375 C112.12753906 107.39570312 112.64960938 106.89296875 113.1875 106.375 C118.72865622 101.85401789 125.52361929 100.27211676 132.24609375 98.19921875 C135.76009553 97.39270212 135.76009553 97.39270212 137 96 C137.04080783 94.00041636 137.04254356 91.99954746 137 90 C132.7560912 87.8780456 127.24542821 89.61365027 122.90234375 90.9609375 C121.82082031 91.32445312 120.73929687 91.68796875 119.625 92.0625 C109.6797041 95.2158865 102.51347791 94.53951518 92.80078125 90.94921875 C90.29284859 90.09924994 88.12214293 89.63283595 85.5 89.375 C82.29877445 89.03201155 80.73611331 88.50006212 78 87 C77.52433594 87.53367187 77.04867187 88.06734375 76.55859375 88.6171875 C70.28835454 95.29158577 63.32610825 99.99465559 55.66601562 104.87744141 C54.10560066 105.92884645 52.63343063 107.10797821 51.171875 108.29296875 C49 110 49 110 47 110 C46.60228394 109.18547363 46.60228394 109.18547363 46.1965332 108.35449219 C40.40541952 96.6908215 34.71275787 87.42290084 24.52392578 79.23339844 C22.23538546 77.38115466 20.05936109 75.41069464 17.875 73.4375 C17.08867187 72.72980469 16.30234375 72.02210938 15.4921875 71.29296875 C12.62102818 68.65132217 9.79170155 65.97531967 7 63.25 C6.0925 62.36828125 5.185 61.4865625 4.25 60.578125 C0.67346314 56.48000985 -0.25271772 52.94436163 -0.22705078 47.56713867 C-0.22689972 46.50641647 -0.22674866 45.44569427 -0.22659302 44.35282898 C-0.21627045 43.2193251 -0.20594788 42.08582123 -0.1953125 40.91796875 C-0.1924826 39.74865311 -0.18965271 38.57933746 -0.18673706 37.37458801 C-0.17555562 33.64545392 -0.15045434 29.91656132 -0.125 26.1875 C-0.11496759 23.65690451 -0.10584219 21.12630526 -0.09765625 18.59570312 C-0.07562292 12.39705323 -0.04216534 6.19854387 0 0 Z " fill="#00BC9F" transform="translate(337,461)"></path>
<path d="M0 0 C11.55 0 23.1 0 35 0 C39.49975874 8.99951748 39.49975874 8.99951748 40.90014648 12.60717773 C41.21878159 13.42234863 41.53741669 14.23751953 41.8657074 15.07739258 C42.19748489 15.93743896 42.52926239 16.79748535 42.87109375 17.68359375 C43.22941788 18.60301758 43.587742 19.52244141 43.95692444 20.46972656 C45.1206031 23.45764123 46.27905309 26.44755352 47.4375 29.4375 C48.66176298 32.5852141 49.88728617 35.7324358 51.11282349 38.87965393 C51.93040278 40.97960269 52.74752164 43.07973078 53.56417847 45.18003845 C55.84048777 51.03272128 58.12810828 56.88058756 60.44140625 62.71875 C60.69974747 63.37075882 60.95808868 64.02276764 61.22425842 64.6945343 C61.73226772 65.97635142 62.24030853 67.25815605 62.74838257 68.53994751 C70.27092561 87.53155105 77.55450663 106.61516743 84.83230591 125.70161438 C86.79842097 130.85700123 88.77038711 136.01003816 90.75296021 141.15911865 C91.80826436 143.9011245 92.85987259 146.64453692 93.9105835 149.38830566 C94.60527402 151.19859617 95.30476504 153.00704223 96.00439453 154.81542969 C96.60936768 156.39952637 96.60936768 156.39952637 97.2265625 158.015625 C97.57283691 158.91571289 97.91911133 159.81580078 98.27587891 160.74316406 C99 163 99 163 99 166 C88.44 166 77.88 166 67 166 C65.1455785 161.05317781 63.29314641 156.10570558 61.44580078 151.15625 C60.8164408 149.47189164 60.18591103 147.78796991 59.55419922 146.10449219 C58.64765201 143.68798174 57.74529028 141.26994463 56.84375 138.8515625 C56.55939087 138.0963028 56.27503174 137.34104309 55.98205566 136.56289673 C54 131.22774341 54 131.22774341 54 129 C29.91 129 5.82 129 -19 129 C-19.99 132.3 -20.98 135.6 -22 139 C-22.78679449 141.2198734 -23.59889575 143.43107501 -24.4453125 145.62890625 C-24.88230469 146.76521484 -25.31929687 147.90152344 -25.76953125 149.07226562 C-26.21683594 150.22404297 -26.66414063 151.37582031 -27.125 152.5625 C-27.58003906 153.74908203 -28.03507812 154.93566406 -28.50390625 156.15820312 C-31.86805556 164.86805556 -31.86805556 164.86805556 -33 166 C-35.3756852 166.0883967 -37.72208674 166.11530305 -40.09765625 166.09765625 C-41.16094398 166.09553383 -41.16094398 166.09553383 -42.24571228 166.09336853 C-44.51801712 166.08775443 -46.79022475 166.07519963 -49.0625 166.0625 C-50.59960796 166.05748681 -52.13671745 166.05292359 -53.67382812 166.04882812 C-57.44925642 166.03778042 -61.22461171 166.02050641 -65 166 C-62.54686778 158.20410293 -59.53348299 150.65669889 -56.47833252 143.08294678 C-55.53957284 140.75566111 -54.60412478 138.42706694 -53.66943359 136.09814453 C-51.7823323 131.39767112 -49.89136165 126.69876038 -48 122 C-39.10399789 99.89207364 -30.39855773 77.71439317 -21.75488281 55.50683594 C-19.57152497 49.89813242 -17.38143588 44.29207379 -15.1875 38.6875 C-14.85476074 37.83736328 -14.52202148 36.98722656 -14.17919922 36.11132812 C-9.46367967 24.06995295 -4.73038595 12.03553893 0 0 Z " fill="#00D49F" transform="translate(1410,377)"></path>
<path d="M0 0 C11.22 0 22.44 0 34 0 C36.96834428 6.53035741 39.87574752 12.94770811 42.4375 19.625 C42.73406494 20.39150879 43.03062988 21.15801758 43.33618164 21.94775391 C45.29828716 27.05876881 47.14527628 32.20235159 48.9375 37.375 C53.31472199 49.98733453 58.24944958 62.39479843 63.9140625 74.484375 C65.57698149 78.33660459 66.82259223 82.30904195 68.10546875 86.30078125 C69.20856689 89.62934375 70.59177281 92.78924201 72 96 C73.26368961 99.23607001 74.50204606 102.48140198 75.7421875 105.7265625 C77.14035095 109.36526118 78.5784029 112.986006 80.03515625 116.6015625 C80.69426696 118.23999966 81.34766234 119.8807446 81.99609375 121.5234375 C82.32738281 122.36132812 82.65867187 123.19921875 83 124.0625 C83.433125 125.16271484 83.433125 125.16271484 83.875 126.28515625 C84.80815684 128.53704516 85.79017883 130.74948879 86.796875 132.96875 C89.50627247 139.03661907 91.86992581 145.23477759 94.25 151.4375 C94.70890625 152.62021484 95.1678125 153.80292969 95.640625 155.02148438 C96.07375 156.14748047 96.506875 157.27347656 96.953125 158.43359375 C97.54335449 159.96584595 97.54335449 159.96584595 98.14550781 161.52905273 C99 164 99 164 99 166 C88.44 166 77.88 166 67 166 C64.93311254 161.86622508 63.4057081 158.4938367 62.0625 154.1875 C60.86242882 150.47277586 59.58441225 146.91397557 57.9375 143.375 C56 139 56 139 53 129 C28.91 129 4.82 129 -20 129 C-22.03391706 135.08711343 -22.03391706 135.08711343 -24.02734375 141.1875 C-25.75290907 146.51971901 -27.60846379 151.68601012 -29.97265625 156.76953125 C-31.37703608 159.81858405 -32.67763893 162.91449083 -34 166 C-44.56 166 -55.12 166 -66 166 C-64.39069874 157.95349372 -61.06239914 150.84939903 -57.24609375 143.6171875 C-55.59853649 140.15680077 -54.30797617 136.59994202 -53 133 C-52.00311283 130.29051178 -51.00169721 127.58271277 -50 124.875 C-49.7525 124.19824219 -49.505 123.52148438 -49.25 122.82421875 C-47.73174808 118.73600914 -45.96765794 114.89778562 -44 111 C-43.32438346 109.24031433 -42.67753819 107.46926301 -42.0625 105.6875 C-40.86824085 102.32554783 -39.62032832 99.05134392 -38.125 95.8125 C-36.40686824 92.03523324 -34.93496657 88.20621047 -33.5 84.3125 C-30.61869807 76.5063254 -27.5398687 68.78303939 -24.4375 61.0625 C-19.38438624 48.48623161 -14.39610916 35.88574293 -9.45288086 23.26586914 C-8.93865144 21.95588717 -8.42441045 20.64590974 -7.91015625 19.3359375 C-7.46808838 18.20720215 -7.02602051 17.0784668 -6.57055664 15.91552734 C-4.43386598 10.58858115 -2.20749808 5.29799538 0 0 Z " fill="#F9F8F9" transform="translate(811,377)"></path>
<path d="M0 0 C3.68416594 1.26152871 5.76622018 2.51444369 8.3125 5.4375 C22.8241817 20.46648367 45.19588442 32.23337301 65.3125 37.375 C67.40234375 38.03125 67.40234375 38.03125 69 39 C69.99510449 41.01674511 70.36078857 42.78071927 70.6953125 45 C71.13965362 47.91670067 72.13392165 49.73404772 74 52 C78.10460704 53.63237975 82.00262742 54.36610153 86.375 54.875 C91.7841446 55.58898424 96.92781275 56.66555211 102.1875 58.0625 C113.86314406 61.22562004 113.86314406 61.22562004 125.59375 59.6328125 C131.2020878 57.85751507 136.82488338 56.86720207 142.625 55.9375 C152.41484175 54.42359727 152.41484175 54.42359727 162 52 C164.00293347 48.99559979 164.49271626 47.29006055 165.125 43.8125 C165.37636719 42.46091797 165.37636719 42.46091797 165.6328125 41.08203125 C165.75398437 40.39496094 165.87515625 39.70789063 166 39 C167.216875 38.608125 168.43375 38.21625 169.6875 37.8125 C171.46004349 37.21336926 173.23070508 36.60865717 175 36 C176.45019531 35.50693359 176.45019531 35.50693359 177.9296875 35.00390625 C197.31890571 28.01701839 214.97859909 15.95025025 230.65234375 2.76953125 C233 1 233 1 235 1 C235.86916887 2.40751221 236.71985149 3.8264521 237.5625 5.25 C238.03816406 6.03890625 238.51382813 6.8278125 239.00390625 7.640625 C240 10 240 10 240.01953125 11.9609375 C238.15185959 15.69628081 234.62972581 18.10974362 231.48046875 20.7578125 C227.96117229 23.82106321 225.5482058 26.47006452 224 31 C223.879339 37.72483983 227.34857706 42.3561948 230.9375 47.75 C231.48857422 48.59949219 232.03964844 49.44898438 232.60742188 50.32421875 C234.71453793 53.56554186 236.85553239 56.78329858 239 60 C239.125 62.6875 239.125 62.6875 239 65 C231.58324496 67.57526217 224.07990044 69.65013083 216.5 71.6875 C207.21918472 74.20456559 198.01378115 76.87580369 188.875 79.875 C178.6251696 83.23051416 168.30635888 86.28813795 157.9375 89.25 C156.84680206 89.56297028 156.84680206 89.56297028 155.73406982 89.88226318 C147.97314808 92.10573132 140.19442025 94.2566607 132.375 96.265625 C131.12332031 96.58821289 129.87164062 96.91080078 128.58203125 97.24316406 C116.60242753 99.77429626 105.52782224 97.21680492 94 94 C93.07300293 93.7426709 92.14600586 93.4853418 91.19091797 93.22021484 C80.25818861 90.15833313 69.41775398 86.8829555 58.67626953 83.20629883 C51.96430548 80.93117289 45.16876383 78.98738689 38.34106445 77.09155273 C34.35398512 75.98046328 30.40633287 74.82427262 26.48828125 73.48828125 C21.796111 71.89604639 17.04583342 70.61411486 12.25 69.375 C11.42628906 69.1584375 10.60257812 68.941875 9.75390625 68.71875 C5.85284916 67.70108293 1.9682889 66.72590651 -2 66 C-2.65676787 60.84536736 -0.42067103 57.63296497 2.125 53.375 C2.94931778 51.94667173 3.77353616 50.51828609 4.59765625 49.08984375 C6.0326171 46.63809767 7.47976528 44.19457587 8.93359375 41.75390625 C9.47113281 40.82449219 10.00867188 39.89507812 10.5625 38.9375 C11.03816406 38.14214844 11.51382812 37.34679687 12.00390625 36.52734375 C13.37182343 33.05658919 13.53026434 30.69951867 13 27 C11.11646724 24.86959644 9.61382353 23.45589174 7.375 21.8125 C6.85292969 21.40064453 6.33085937 20.98878906 5.79296875 20.56445312 C3.15761749 18.51148195 0.45339084 16.64810842 -2.35546875 14.83984375 C-5 13 -5 13 -5.6875 10.75 C-4.66040753 6.64163013 -2.39783814 3.45117418 0 0 Z " fill="#00D89A" transform="translate(326,378)"></path>
<path d="M0 0 C1.27166016 -0.00773437 2.54332031 -0.01546875 3.85351562 -0.0234375 C18.92882857 0.00782287 31.58487755 3.64395574 42.8515625 14.31640625 C53.93075336 26.83740961 53.99397257 41.11685213 53.85546875 56.91796875 C53.8498636 58.80796469 53.84559785 60.69796503 53.84260559 62.58796692 C53.83122915 67.52813045 53.80182508 72.46802339 53.76849365 77.40808105 C53.73763635 82.46277203 53.72406699 87.51750733 53.70898438 92.57226562 C53.6769475 102.4649809 53.62423954 112.35742546 53.5625 122.25 C44.6525 122.25 35.7425 122.25 26.5625 122.25 C26.2325 118.62 25.9025 114.99 25.5625 111.25 C24.61890625 111.93707031 23.6753125 112.62414062 22.703125 113.33203125 C21.4069155 114.24313503 20.11000157 115.1532372 18.8125 116.0625 C18.19761719 116.51431641 17.58273437 116.96613281 16.94921875 117.43164062 C7.60755609 123.8953163 -2.91467389 124.76291038 -14 124.6875 C-15.04607422 124.70748047 -16.09214844 124.72746094 -17.16992188 124.74804688 C-29.14760438 124.74061194 -39.2420528 120.64238389 -48.1875 112.6953125 C-55.56901144 104.98163304 -57.00076975 95.58818213 -56.83984375 85.3190918 C-56.48197682 76.27990169 -53.55807164 69.8932272 -47.4375 63.25 C-27.45864535 45.58406665 0.90231413 49.91027599 25.5625 51.25 C25.24424469 42.73667051 24.18279662 35.40269319 18.4375 28.8125 C9.24702664 23.81767752 -3.89226237 23.99815062 -14.02734375 25.6796875 C-17.99698255 26.95311619 -20.23240479 29.06236187 -23 32 C-25.84711408 34.69965399 -27.1134263 35.22650638 -31.1015625 35.515625 C-36.62007126 35.27062717 -42.04119629 34.4056138 -47.4375 33.25 C-48.48827525 22.30859427 -48.48827525 22.30859427 -46.1953125 17.81640625 C-34.25509242 3.70273598 -17.60515871 -0.10675185 0 0 Z " fill="#F8F8F8" transform="translate(1237.4375,420.75)"></path>
<path d="M0 0 C3.73149414 0.5002824 6.88401744 1.68773002 10.30859375 3.21484375 C11.30310547 3.65376953 12.29761719 4.09269531 13.32226562 4.54492188 C14.86430664 5.23424805 14.86430664 5.23424805 16.4375 5.9375 C25.07304708 9.84379885 25.07304708 9.84379885 34 13 C34.44446893 31.56892403 31.59458173 47.41917339 25.875 65.09375 C22.87146163 74.42913193 20.72278658 81.59013048 25 91 C25.7425 90.2575 26.485 89.515 27.25 88.75 C28.1575 87.8425 29.065 86.935 30 86 C30.721875 85.236875 31.44375 84.47375 32.1875 83.6875 C34 82 34 82 36 82 C36.0093457 83.29172119 36.01869141 84.58344238 36.02832031 85.91430664 C36.15975635 116.84246184 36.15975635 116.84246184 38.8125 147.625 C38.96557617 148.79812744 39.11865234 149.97125488 39.27636719 151.17993164 C40.31850448 158.27833118 42.03452163 164.98331991 44.2019043 171.82177734 C45.00385122 175.01533653 45.14728063 177.72277445 45 181 C38.89068352 179.18335886 33.51613662 176.9159307 28.0625 173.625 C27.3408667 173.19437256 26.6192334 172.76374512 25.87573242 172.32006836 C17.222446 167.05613338 9.07855859 161.09783933 1 155 C0.35369629 154.51354004 -0.29260742 154.02708008 -0.95849609 153.52587891 C-8.3489296 147.93034786 -15.35868016 142.03871434 -22.1171875 135.6953125 C-24.97689767 133.02159974 -27.88963065 130.41680048 -30.8125 127.8125 C-34.62411596 124.35137747 -38.15740381 120.82340189 -41.4296875 116.84765625 C-42.96223436 114.97034315 -42.96223436 114.97034315 -44.7578125 113.37109375 C-48.30621778 109.94647005 -49.47003517 107.3362373 -49.75 102.375 C-49.43223064 97.7801966 -48.49556967 94.34365795 -46.5 90.203125 C-45.95698242 89.06987793 -45.41396484 87.93663086 -44.85449219 86.76904297 C-44.23760509 85.51206781 -43.6193827 84.25574731 -43 83 C-42.67310181 82.3329303 -42.34620361 81.6658606 -42.00939941 80.97857666 C-39.45078809 75.76336659 -36.85480659 70.56725771 -34.25 65.375 C-33.85026978 64.57675812 -33.45053955 63.77851624 -33.03869629 62.95608521 C-27.96821775 52.83324603 -22.84828834 42.74373744 -17.51953125 32.75390625 C-15.42320144 28.81945845 -13.369828 24.86332767 -11.32421875 20.90234375 C-10.84304092 19.97109932 -10.84304092 19.97109932 -10.35214233 19.02104187 C-9.06152683 16.52246798 -7.77133093 14.0236869 -6.48449707 11.52316284 C-5.59413832 9.79325864 -4.70141902 8.06456999 -3.80859375 6.3359375 C-3.29095459 5.33095215 -2.77331543 4.3259668 -2.23999023 3.29052734 C-1 1 -1 1 0 0 Z " fill="#00AEA3" transform="translate(286,466)"></path>
<path d="M0 0 C9.57 0 19.14 0 29 0 C29.33 33.66 29.66 67.32 30 102 C37.08990198 95.01672853 37.08990198 95.01672853 43.375 87.625 C47.41648272 82.57314661 51.83577984 78.06702614 56.4453125 73.546875 C58.55634269 71.44230056 60.55314955 69.31674789 62.5 67.0625 C63.27500854 66.19057007 63.27500854 66.19057007 64.06567383 65.30102539 C66.10445796 62.942343 66.10445796 62.942343 68.10864258 60.00463867 C71.67464392 55.20928751 75.00773927 50.99319518 81.17529297 50.02563477 C85.86384267 49.67709735 90.50384772 49.94749133 95.1875 50.25 C96.82336982 50.31031753 98.45945562 50.3650486 100.09570312 50.4140625 C104.06922186 50.54510421 108.03217829 50.75131371 112 51 C112 54 112 54 110.53344727 55.54516602 C109.86369873 56.08842529 109.1939502 56.63168457 108.50390625 57.19140625 C104.08339133 60.89771075 100.00292118 64.84841973 95.9375 68.9375 C95.26912109 69.60201172 94.60074219 70.26652344 93.91210938 70.95117188 C90.65466221 74.21495033 87.5035446 77.52272301 84.4921875 81.015625 C80.92039926 85.15561775 77.09072976 88.98694645 73.1875 92.8125 C71.8661605 94.10830637 70.54705092 95.40639155 69.23046875 96.70703125 C68.65707764 97.2688208 68.08368652 97.83061035 67.49291992 98.40942383 C65.79042085 100.13564277 65.79042085 100.13564277 64 103 C64.32100114 106.55195729 66.10382565 108.76291393 68.24609375 111.52734375 C69.24733276 112.82949829 69.24733276 112.82949829 70.26879883 114.15795898 C70.98447021 115.07520752 71.7001416 115.99245605 72.4375 116.9375 C73.16670654 117.88246338 73.89591309 118.82742676 74.6472168 119.80102539 C76.10233712 121.68580024 77.56005075 123.56857616 79.02050781 125.44921875 C80.65409259 127.55426238 82.28017637 129.66442772 83.8984375 131.78125 C88.02243952 137.17314908 92.18548836 142.53392879 96.375 147.875 C97.04619873 148.73097778 97.04619873 148.73097778 97.73095703 149.60424805 C100.24997348 152.80648618 102.79388963 155.98644827 105.36328125 159.1484375 C105.91773926 159.83309082 106.47219727 160.51774414 107.04345703 161.22314453 C108.12222037 162.55309601 109.20510176 163.87971994 110.29248047 165.20263672 C114 169.77758521 114 169.77758521 114 172 C109.16240424 172.27364565 104.32937451 172.47223893 99.48583984 172.60424805 C97.8421378 172.65929641 96.19896798 172.73417216 94.55712891 172.82983398 C80.97076089 173.60113053 80.97076089 173.60113053 76.33154297 169.83203125 C74.26448959 166.98765426 72.63064023 164.1120996 71 161 C69.86617078 159.38717085 68.70312483 157.79436829 67.5078125 156.2265625 C66.95287109 155.47093018 66.39792969 154.71529785 65.82617188 153.93676758 C60.33972257 146.48108611 54.8029665 139.0747439 49.1328125 131.7578125 C46.38202322 128.20093113 43.68650957 124.60557863 41 121 C36.39424466 123.113929 32.93167482 125.83663792 30 130 C29.044449 133.31074625 29.04226393 136.44164194 29.09765625 139.87109375 C29.07921913 141.25458763 29.07921913 141.25458763 29.06040955 142.66603088 C29.02880242 145.59067469 29.04492037 148.51277994 29.0625 151.4375 C29.04938378 153.42905978 29.03314032 155.42060157 29.01367188 157.41210938 C28.96707644 162.27626715 28.98511956 167.13409661 29 172 C19.43 172 9.86 172 0 172 C0 115.24 0 58.48 0 0 Z " fill="#F8F7F8" transform="translate(922,371)"></path>
<path d="M0 0 C2.58588134 2.43772135 4.53562089 4.57674031 6.0703125 7.78515625 C6.40933594 8.48060547 6.74835937 9.17605469 7.09765625 9.89257812 C7.43667969 10.60865234 7.77570312 11.32472656 8.125 12.0625 C8.81337881 13.49171771 9.50342208 14.92013521 10.1953125 16.34765625 C10.64414795 17.29137085 10.64414795 17.29137085 11.10205078 18.25415039 C12.09335079 20.26213291 12.09335079 20.26213291 14 23 C14 24.32 14 25.64 14 27 C14.66 27 15.32 27 16 27 C17.46167733 29.89415706 18.91873964 32.79061398 20.375 35.6875 C20.7875 36.50412109 21.2 37.32074219 21.625 38.16210938 C22.22441406 39.35610352 22.22441406 39.35610352 22.8359375 40.57421875 C23.20251465 41.30213623 23.5690918 42.03005371 23.94677734 42.7800293 C24.68099401 44.32760281 25.35584191 45.90414065 25.9831543 47.49804688 C26.97856616 49.94726195 28.12788389 52.16026742 29.43359375 54.45703125 C35.00832692 64.38714187 40.35873546 74.40104206 45.25 84.6875 C45.72751709 85.65341064 46.20503418 86.61932129 46.69702148 87.61450195 C49.73461258 94.14467604 51.14386592 99.79953801 50 107 C47.22960125 114.15094378 41.32725992 119.07979727 35.9375 124.375 C35.04611328 125.26960937 34.15472656 126.16421875 33.23632812 127.0859375 C27.12980462 133.14403147 20.72390917 138.64302853 14 144 C12.79158818 145.0006755 11.58546727 146.00413148 10.3828125 147.01171875 C-2.49814932 157.65725439 -16.40372393 167.00760423 -30.9375 175.25 C-31.56906006 175.60860107 -32.20062012 175.96720215 -32.85131836 176.33666992 C-36.47054531 178.32903547 -40.04378 179.81615402 -44 181 C-43.7347331 178.41598828 -43.46398401 175.83282367 -43.1875 173.25 C-43.05710327 172.02869385 -43.05710327 172.02869385 -42.92407227 170.78271484 C-42.37446367 165.82629621 -41.67737762 160.92569437 -40.83666992 156.01098633 C-38.70104716 143.24557886 -38.30573058 130.53263103 -38.05145264 117.61334229 C-37.99203685 114.59554197 -37.92982438 111.57780385 -37.86767578 108.56005859 C-37.5509738 93.0405172 -37.26582587 77.52049061 -37 62 C-34.09477745 64.65536361 -32.40933412 66.76155121 -31.11328125 70.4765625 C-30.6656543 71.72953125 -30.6656543 71.72953125 -30.20898438 73.0078125 C-29.91314453 73.87148438 -29.61730469 74.73515625 -29.3125 75.625 C-28.70510365 77.34659302 -28.09706185 79.06795849 -27.48828125 80.7890625 C-27.22571533 81.54912598 -26.96314941 82.30918945 -26.69262695 83.09228516 C-26.02409064 85.04775569 -26.02409064 85.04775569 -25 87 C-22.525 86.01 -22.525 86.01 -20 85 C-19.8012942 92.57657857 -20.34310722 99.76667554 -21.5 107.25 C-23.26965078 118.62536927 -23.26965078 118.62536927 -22 130 C-17.93332158 127.79903784 -15.06008132 125.21220461 -11.875 121.875 C-3.65472744 113.4461053 6.51553185 103.12971736 17.7109375 99 C20.34786444 98.16475647 20.34786444 98.16475647 21.25 94.9375 C21.62125 93.4834375 21.62125 93.4834375 22 92 C22.33 91.67 22.66 91.34 23 91 C23.04092937 88.66702567 23.04241723 86.33294775 23 84 C20.10011533 83.60396112 17.89036628 83.4493065 15.33740234 85.02832031 C13.55974006 86.50389959 11.86891519 88.04064324 10.1875 89.625 C8.95497413 90.73398106 7.71930309 91.83947681 6.48046875 92.94140625 C5.88540527 93.47266113 5.2903418 94.00391602 4.67724609 94.55126953 C0.0597258 98.53967789 -7.6845623 105 -14 105 C-17.77613355 81.46427105 -17.77613355 81.46427105 -14.04492188 74.12011719 C-11.29181996 70.64891083 -7.6859756 68.3716343 -4 66 C-2.47744527 64.69248141 -0.97438445 63.36160504 0.5 62 C2.62620562 60.12605607 4.62592993 58.58271338 7 57 C6.67 55.35 6.34 53.7 6 52 C0.93816018 52 -1.15978287 54.11514953 -4.875 57.1875 C-5.47441406 57.67025391 -6.07382812 58.15300781 -6.69140625 58.65039062 C-9.05240026 60.55813525 -11.40011472 62.47086414 -13.67675781 64.47900391 C-17.6982694 68 -17.6982694 68 -21 68 C-22.40532782 63.68800036 -23.71047306 59.34769703 -25 55 C-25.4338501 53.55173828 -25.4338501 53.55173828 -25.87646484 52.07421875 C-33.33930263 26.88281577 -33.33930263 26.88281577 -32 14 C-24.99899775 10.870739 -17.97186807 7.80340393 -10.9375 4.75 C-9.88111328 4.29109375 -8.82472656 3.8321875 -7.73632812 3.359375 C-5.15769828 2.2392462 -2.57891958 1.11946155 0 0 Z " fill="#00AFA2" transform="translate(601,466)"></path>
<path d="M0 0 C8.44628178 0.45967832 16.36276538 2.41435188 24.5 4.625 C25.48447113 4.88845215 25.48447113 4.88845215 26.48883057 5.15722656 C37.29247146 8.05829257 47.73051966 11.54710879 58 16 C62.67546142 38.90419491 64.13967981 65.4670836 57 88 C56.67854004 89.03133057 56.67854004 89.03133057 56.35058594 90.08349609 C50.01292957 109.77451141 39.17923109 126.00273635 25 141 C24.30390625 141.74894531 23.6078125 142.49789062 22.890625 143.26953125 C6.18401077 160.67733549 -17.27186276 174.98259653 -41 180 C-43.11671483 175.2173353 -44.94771487 170.41429834 -46.5625 165.4375 C-46.77068359 164.80392578 -46.97886719 164.17035156 -47.19335938 163.51757812 C-47.79738872 161.67898096 -48.39873816 159.83950405 -49 158 C-49.66531333 155.9995494 -50.33148519 153.999383 -51 152 C-49.98421875 151.50371094 -48.9684375 151.00742187 -47.921875 150.49609375 C-19.7741667 136.6592657 3.26621432 118.46400811 14.87109375 88.33984375 C22.90664157 64.56685627 23.42237996 43.74427114 12.36328125 20.5703125 C9.09496227 14.32745601 5.4536217 8.50823177 1.28515625 2.828125 C0 1 0 1 0 0 Z " fill="#01EE95" transform="translate(531,225)"></path>
<path d="M0 0 C-0.56847656 0.77601563 -1.13695312 1.55203125 -1.72265625 2.3515625 C-13.51380347 18.72373843 -20.81143965 35.05896291 -20.625 55.625 C-20.6144458 56.93315674 -20.6038916 58.24131348 -20.59301758 59.58911133 C-19.93722895 86.44671169 -6.9404026 107.7042381 11.453125 126.5078125 C22.67017083 137.16772029 36.10374778 144.46273549 50 151 C47 160 44 169 41 178 C9.48200146 172.06516664 -21.43232384 149.62841054 -39.51928711 123.44018555 C-50.99513497 106.12787295 -60.85198575 84.98869529 -62 64 C-62.04092773 63.31147949 -62.08185547 62.62295898 -62.12402344 61.91357422 C-62.85901755 47.65408099 -60.92970956 33.93976985 -58 20 C-57.80277344 18.84628906 -57.60554688 17.69257813 -57.40234375 16.50390625 C-55.49415301 13.09680246 -53.50321281 12.61725824 -49.86523438 11.48632812 C-49.06408203 11.26396484 -48.26292969 11.04160156 -47.4375 10.8125 C-46.27637695 10.46155273 -46.27637695 10.46155273 -45.09179688 10.10351562 C-43.52084786 9.62869923 -41.94720826 9.16270007 -40.37109375 8.70532227 C-38.00880323 8.00261867 -35.67514344 7.2405465 -33.33984375 6.453125 C-7.27770178 -2.33087684 -7.27770178 -2.33087684 0 0 Z " fill="#01ED96" transform="translate(357,226)"></path>
<path d="M0 0 C0 0.66 0 1.32 0 2 C0.57878906 2.1134375 1.15757812 2.226875 1.75390625 2.34375 C4.19529459 3.05705998 5.82099921 4.10254074 7.9375 5.5 C12.03806724 7.93598054 14.83231565 8.13169887 19.5625 8 C22.8984375 8.1015625 22.8984375 8.1015625 26 9 C29.55540106 12.97110949 31.69232616 17.19083194 34 22 C34.99 23.485 34.99 23.485 36 25 C36.3347168 26.88183594 36.3347168 26.88183594 36.44921875 28.984375 C36.49240234 29.75523437 36.53558594 30.52609375 36.58007812 31.3203125 C36.61552734 32.12210938 36.65097656 32.92390625 36.6875 33.75 C36.75807617 34.92949219 36.75807617 34.92949219 36.83007812 36.1328125 C37.18480101 43.13422804 37.45807997 48.99333224 32.63671875 54.6015625 C32.17910156 55.10429688 31.72148437 55.60703125 31.25 56.125 C30.38890625 57.11757813 29.5278125 58.11015625 28.640625 59.1328125 C27.80881714 59.97235474 27.80881714 59.97235474 26.96020508 60.82885742 C24.83218359 63.07502866 24.83218359 63.07502866 22.8581543 66.2590332 C19.05127236 71.54402238 15.20237244 75.20727715 8.74041748 76.80688477 C0.4452391 77.99742382 -7.8274195 78.07841757 -16.19018555 77.96948242 C-19.18511468 77.93265253 -22.1646611 77.96696907 -25.15795898 78.07202148 C-52.37736287 79.02252107 -52.37736287 79.02252107 -62.46430969 69.76332092 C-65.96712332 66.0452028 -69.06980233 62.18054383 -72 58 C-72.4993959 57.32102158 -72.99879181 56.64204315 -73.51332092 55.94248962 C-75.77392945 52.85540421 -77.56533921 50.0589348 -78.8125 46.4375 C-80.65140365 42.00604366 -83.10251209 39.94023699 -87.09765625 37.38671875 C-89.22472202 35.83618826 -90.52032022 34.16189974 -92 32 C-88.125 33.875 -88.125 33.875 -87 35 C-85.00041636 35.04080783 -82.99954746 35.04254356 -81 35 C-80.67 33.68 -80.34 32.36 -80 31 C-79.34 31 -78.68 31 -78 31 C-77.77441406 30.32453125 -77.54882812 29.6490625 -77.31640625 28.953125 C-75.63463888 25.18037683 -73.37245051 22.07007396 -70.9375 18.75 C-70.24817383 17.79480469 -70.24817383 17.79480469 -69.54492188 16.8203125 C-66.19148166 12.19148166 -66.19148166 12.19148166 -65 11 C-64.3709375 11.01160156 -63.741875 11.02320313 -63.09375 11.03515625 C-57.12284695 11.09810252 -53.77502238 10.0074804 -49.02319336 6.3527832 C-35.13950509 -3.99882334 -16.41930896 -0.8333373 0 0 Z " fill="#009CA5" transform="translate(465,583)"></path>
<path d="M0 0 C6.68360504 0.06475316 12.38430324 1.86870196 18.65234375 4.046875 C19.69455078 4.39492188 20.73675781 4.74296875 21.81054688 5.1015625 C23.9084216 5.80388882 26.00335517 6.51506319 28.09521484 7.23510742 C30.16928856 7.94101966 32.250517 8.62626021 34.33837891 9.2902832 C40.79310682 11.35059783 46.74961502 13.77315801 52.71484375 16.984375 C53.5236499 17.41427734 54.33245605 17.84417969 55.16577148 18.28710938 C62.76813689 22.42408025 70.06651407 27.14854532 76.21484375 33.296875 C75.69624689 39.77232773 69.32103797 45.58281848 64.64453125 49.66894531 C56.5182421 56.19212174 47.63382033 60.92289115 38.21484375 65.296875 C37.48523438 65.68875 36.755625 66.080625 36.00390625 66.484375 C34.21484375 67.296875 34.21484375 67.296875 31.21484375 67.296875 C30.82683594 66.25789063 30.43882812 65.21890625 30.0390625 64.1484375 C25.88372846 54.48588779 15.56501725 46.96394787 6.08984375 42.984375 C1.78003494 41.95376855 -1.41498274 41.54297143 -5.390625 43.73046875 C-6.66873047 44.72240234 -6.66873047 44.72240234 -7.97265625 45.734375 C-8.91882813 46.4665625 -9.865 47.19875 -10.83984375 47.953125 C-11.81179688 48.7265625 -12.78375 49.5 -13.78515625 50.296875 C-14.75710938 51.0290625 -15.7290625 51.76125 -16.73046875 52.515625 C-22.70797288 57.14126852 -27.08239493 61.6881491 -30.78515625 68.296875 C-43.48381968 64.35769777 -56.21601409 57.68962744 -65.78515625 48.296875 C-65.78515625 47.636875 -65.78515625 46.976875 -65.78515625 46.296875 C-66.36652344 46.05710937 -66.94789063 45.81734375 -67.546875 45.5703125 C-70.23248334 44.04237477 -71.68760709 42.34261098 -73.59765625 39.921875 C-74.22285156 39.15101563 -74.84804688 38.38015625 -75.4921875 37.5859375 C-76.78515625 35.296875 -76.78515625 35.296875 -76.57641602 33.32250977 C-75.6014328 30.8265407 -74.62477646 30.08953075 -72.41796875 28.59765625 C-71.70688965 28.11498291 -70.99581055 27.63230957 -70.26318359 27.13500977 C-69.48668457 26.63155029 -68.71018555 26.12809082 -67.91015625 25.609375 C-67.10658691 25.08335693 -66.30301758 24.55733887 -65.47509766 24.01538086 C-48.53325653 13.1889629 -30.61757271 6.85812804 -11.10302734 2.55151367 C-6.97044814 1.63495512 -4.21718701 0.10453019 0 0 Z " fill="#01ED94" transform="translate(443.78515625,296.703125)"></path>
<path d="M0 0 C10.23 0 20.46 0 31 0 C31 54.78 31 109.56 31 166 C20.77 166 10.54 166 0 166 C0 111.22 0 56.44 0 0 Z " fill="#00D79D" transform="translate(1523,377)"></path>
<path d="M0 0 C1.29421875 0.00644531 2.5884375 0.01289063 3.921875 0.01953125 C7.25 0.1875 7.25 0.1875 10.25 1.1875 C10.25 10.0975 10.25 19.0075 10.25 28.1875 C7.506875 28.125625 4.76375 28.06375 1.9375 28 C-8.52886314 27.94354205 -16.90180308 28.79525608 -24.99609375 35.98046875 C-31.82800608 44.57741856 -31.35407814 53.13543352 -31.359375 63.59375 C-31.37437153 65.28627087 -31.39110175 66.97877718 -31.40948486 68.67126465 C-31.45300563 73.10336006 -31.47312338 77.5352581 -31.48822021 81.9675293 C-31.50784665 86.49930416 -31.5498103 91.0308676 -31.58984375 95.5625 C-31.66498046 104.43747034 -31.71330465 113.31228738 -31.75 122.1875 C-41.32 122.1875 -50.89 122.1875 -60.75 122.1875 C-60.75 82.2575 -60.75 42.3275 -60.75 1.1875 C-51.84 1.1875 -42.93 1.1875 -33.75 1.1875 C-33.255 8.1175 -33.255 8.1175 -32.75 15.1875 C-31.63625 13.970625 -30.5225 12.75375 -29.375 11.5 C-21.33920277 3.46420277 -11.30346027 -0.12483741 0 0 Z " fill="#F8F7F8" transform="translate(1164.75,420.8125)"></path>
<path d="M0 0 C12.11770493 4.40643816 23.18593623 12.80037097 33 21 C33.80050781 21.63292969 34.60101563 22.26585937 35.42578125 22.91796875 C37 25 37 25 37.09375 27.64453125 C35.54366039 32.39998473 33.08847265 36.42662625 30.5 40.6875 C29.48726426 42.37751872 28.47674679 44.06886926 27.46875 45.76171875 C27.01951172 46.50381592 26.57027344 47.24591309 26.10742188 48.01049805 C23.602064 52.51141544 23.13882361 56.97515427 24 62 C25.67269822 65.27334176 27.75304053 68.10107301 30 71 C32 74 32 74 31.6875 76.0625 C31 78 31 78 30 80 C23.93748117 80.63815988 19.4252962 78.36115003 14 76 C12.001094 75.16404591 10.00106372 74.33077581 8 73.5 C6.98421875 73.07460938 5.9684375 72.64921875 4.921875 72.2109375 C2.37410178 71.15504218 -0.18298027 70.13285674 -2.75 69.125 C-7.87436479 67.09008343 -12.91267533 64.87039953 -17.95581055 62.64379883 C-22.13381987 60.80266731 -26.33250912 59.03209479 -30.5625 57.3125 C-34.94292793 55.50773979 -38.96376466 53.47678078 -43 51 C-42.73611191 45.44779449 -39.24325364 42.61696404 -35.5625 38.875 C-34.28067947 37.53830729 -32.99943307 36.2010638 -31.71875 34.86328125 C-30.76935547 33.88029053 -30.76935547 33.88029053 -29.80078125 32.87744141 C-23.99240681 26.82180157 -18.43861339 20.52562095 -12.9375 14.19140625 C-8.69754202 9.39580862 -4.33805039 4.70674545 0 0 Z " fill="#00D799" transform="translate(289,383)"></path>
<path d="M0 0 C9.57 0 19.14 0 29 0 C29 39.93 29 79.86 29 121 C19.43 121 9.86 121 0 121 C0 81.07 0 41.14 0 0 Z " fill="#FAFAFA" transform="translate(1050,422)"></path>
<path d="M0 0 C8.32469755 6.69595238 15.11087623 14.80874936 22.09765625 22.84765625 C24.48996587 25.55435564 26.93089151 28.21521024 29.375 30.875 C29.84131836 31.38474365 30.30763672 31.8944873 30.78808594 32.41967773 C33.07473215 34.91718596 35.37547867 37.39552587 37.70703125 39.8515625 C38.93486328 41.16253906 38.93486328 41.16253906 40.1875 42.5 C40.92355469 43.2734375 41.65960937 44.046875 42.41796875 44.84375 C44 47 44 47 44 51 C32.28125 56.859375 32.28125 56.859375 30.13500977 57.9296875 C28.72362373 58.63723654 27.31518021 59.35068917 25.90991211 60.0703125 C21.86483888 62.13184186 17.82804417 63.92371901 13.5625 65.5 C9.86893789 66.89196098 6.21701172 68.30106366 2.625 69.9375 C-2.02196092 72.05444887 -6.76092613 73.93178828 -11.50927734 75.80639648 C-14.61126828 77.03346287 -17.67457552 78.30453217 -20.7109375 79.68359375 C-24 81 -24 81 -28 81 C-29.40668274 75.71917465 -29.40668274 75.71917465 -27.56640625 72.46484375 C-26.90511719 71.63082031 -26.24382813 70.79679687 -25.5625 69.9375 C-21.96166052 64.59782455 -20.95078197 60.62480423 -21.30859375 54.20703125 C-22.51758591 48.59922018 -25.58092379 44.5069641 -29 40 C-35.10038074 31.57422661 -35.10038074 31.57422661 -34.56787109 26.04711914 C-32.51089518 18.63192439 -22.43627143 13.65067896 -16.4375 9.75 C-15.51775391 9.13898438 -14.59800781 8.52796875 -13.65039062 7.8984375 C-9.21032404 4.97456906 -4.83401897 2.21994881 0 0 Z " fill="#00DD98" transform="translate(598,383)"></path>
<path d="M0 0 C2.28125 1.48828125 2.28125 1.48828125 4.5 3.3125 C5.2321875 3.90675781 5.964375 4.50101562 6.71875 5.11328125 C7.4715625 5.73589844 8.224375 6.35851562 9 7 C10.31291016 7.88365234 10.31291016 7.88365234 11.65234375 8.78515625 C14.73519958 11.69360759 15.15536231 14.01545531 16.0625 18.125 C17.32744489 23.50636474 18.88994783 28.50641112 21.0625 33.58984375 C22.11457694 36.29455821 22.84387492 39.00162794 23.5625 41.8125 C24.57003062 45.69557745 25.76110959 48.64166438 28 52 C30.45274175 56.9054835 31.43973356 60.50333053 31 66 C30 67 30 67 26.1875 67.25 C22.46806935 67.22689795 19.4751614 66.60944411 15.9375 65.5 C9.60063282 63.77696008 3.45980216 63.69548262 -3.0625 63.6875 C-4.56985718 63.67976563 -4.56985718 63.67976563 -6.10766602 63.671875 C-12.09835073 63.72666039 -17.6813779 64.37677671 -23.55151367 65.55249023 C-26.59919316 66.10951451 -29.53043178 66.23240798 -32.625 66.1875 C-33.62789063 66.18105469 -34.63078125 66.17460937 -35.6640625 66.16796875 C-38 66 -38 66 -39 65 C-39.86831277 57.55731913 -37.85956572 53.00297746 -34.578125 46.37109375 C-31.79433638 40.42453538 -30.1534929 34.09598458 -28.37695312 27.78759766 C-23.29468692 9.97388634 -23.29468692 9.97388634 -15 5 C-14.15566406 4.41734375 -13.31132812 3.8346875 -12.44140625 3.234375 C-4.93530765 -1.7176425 -4.93530765 -1.7176425 0 0 Z " fill="#00E098" transform="translate(448,353)"></path>
<path d="M0 0 C2.35884984 2.12822751 3.57884041 3.91437491 4.69824219 6.87866211 C5.14450958 8.04279884 5.14450958 8.04279884 5.59979248 9.23045349 C5.91232971 10.07092728 6.22486694 10.91140106 6.546875 11.77734375 C6.88116516 12.65789932 7.21545532 13.5384549 7.55987549 14.44569397 C8.26961951 16.31970507 8.97546908 18.19519501 9.67773438 20.07202148 C10.72503516 22.870785 11.7831535 25.66523615 12.84375 28.45898438 C16.32830169 37.66916279 19.72573674 46.90985633 23.015625 56.19140625 C23.31764832 57.03485092 23.61967163 57.87829559 23.93084717 58.74729919 C24.20406799 59.52622025 24.47728882 60.3051413 24.75878906 61.10766602 C25.11991791 62.13030296 25.11991791 62.13030296 25.48834229 63.17359924 C26 65 26 65 26 68 C9.17 68 -7.66 68 -25 68 C-24.23527786 64.17638931 -23.38045732 61.05371271 -22.03125 57.44921875 C-21.6293042 56.36970947 -21.2273584 55.2902002 -20.81323242 54.17797852 C-20.37986572 53.02612061 -19.94649902 51.8742627 -19.5 50.6875 C-18.83158081 48.89880493 -18.83158081 48.89880493 -18.1496582 47.07397461 C-17.2245736 44.59982741 -16.29787967 42.12628137 -15.36962891 39.65332031 C-14.07727183 36.20611332 -12.79298452 32.75602967 -11.51171875 29.3046875 C-4.14772165 9.504327 -4.14772165 9.504327 0 0 Z " fill="#060709" transform="translate(827,411)"></path>
<path d="M0 0 C0 0.66 0 1.32 0 2 C0.57878906 2.1134375 1.15757812 2.226875 1.75390625 2.34375 C4.19529459 3.05705998 5.82099921 4.10254074 7.9375 5.5 C12.03806724 7.93598054 14.83231565 8.13169887 19.5625 8 C22.8984375 8.1015625 22.8984375 8.1015625 26 9 C29.55540106 12.97110949 31.69232616 17.19083194 34 22 C34.99 23.485 34.99 23.485 36 25 C36.14221065 27.60245498 36.18802932 30.09117684 36.125 32.6875 C36.11597656 33.38939453 36.10695313 34.09128906 36.09765625 34.81445312 C36.07413704 36.54311525 36.03826713 38.27160145 36 40 C31.20365834 37.95085873 27.70049003 34.33536715 23.8515625 30.8984375 C20.57728036 28.71857296 18.85253831 28.60224531 15 29 C14.505 27.63875 14.505 27.63875 14 26.25 C11.6871247 22.49157764 9.97539671 21.61967607 6.03515625 19.95703125 C4 19 4 19 2.39746094 17.47607422 C-1.05957744 15.34763694 -4.44718906 15.47409457 -8.39453125 15.42578125 C-9.21894211 15.4110527 -10.04335297 15.39632416 -10.89274597 15.38114929 C-12.64186368 15.35720826 -14.39111561 15.34178023 -16.14038086 15.33422852 C-18.76728996 15.31286763 -21.38807375 15.23286626 -24.01367188 15.15039062 C-35.60107518 14.9646154 -44.70735963 16.74771189 -54 24 C-55.33711297 25.99747508 -56.67113216 27.9970302 -58 30 C-59.94265572 30.22664317 -61.88971627 30.44349529 -63.84375 30.52734375 C-67.46537995 31.32121553 -69.59156843 33.83612685 -72.140625 36.40625 C-74.12672479 38.10862125 -75.44689625 38.59331091 -78 39 C-79.01710424 34.72610742 -79.01926275 30.95774477 -76.95263672 26.98828125 C-73.47276619 21.38373729 -69.67613468 15.67613468 -65 11 C-63.47990583 10.95258966 -61.95787979 10.96286095 -60.4375 11 C-55.47778332 10.70380345 -52.92952635 9.3585766 -49.02539062 6.35498047 C-35.14277026 -3.9999134 -16.41967135 -0.83335569 0 0 Z " fill="#00090A" transform="translate(465,583)"></path>
<path d="M0 0 C0.66 0 1.32 0 2 0 C2.19110352 0.589021 2.38220703 1.17804199 2.57910156 1.78491211 C3.46444975 4.50408168 4.35717962 7.22077514 5.25 9.9375 C5.55035156 10.86369141 5.85070313 11.78988281 6.16015625 12.74414062 C7.88680383 17.97918914 9.81706554 23.00083873 12.11621094 28.01000977 C13.27440651 30.61786947 14.1528113 33.27689345 15 36 C16.15202157 39.55916392 17.36636068 42.9803295 18.9375 46.375 C20.74904233 50.30121127 22.28153602 54.31032499 23.75 58.375 C24.17796875 59.55835938 24.6059375 60.74171875 25.046875 61.9609375 C26 65 26 65 26 68 C9.17 68 -7.66 68 -25 68 C-24.24718927 64.23594636 -23.42531351 61.16989721 -22.1015625 57.625 C-21.70976807 56.57086914 -21.31797363 55.51673828 -20.91430664 54.43066406 C-20.48883545 53.29854492 -20.06336426 52.16642578 -19.625 51 C-19.18599365 49.82405273 -18.7469873 48.64810547 -18.29467773 47.43652344 C-16.86827635 43.62239003 -15.43505402 39.81088276 -14 36 C-13.49981625 34.66992977 -12.99965359 33.3398516 -12.49951172 32.00976562 C-11.02420128 28.08844504 -9.54417473 24.16891957 -8.0625 20.25 C-7.60246582 19.03183594 -7.14243164 17.81367188 -6.66845703 16.55859375 C-4.55400008 10.98674563 -2.41397103 5.44936033 0 0 Z " fill="#000707" transform="translate(1427,411)"></path>
<path d="M0 0 C0.81276398 0.0028299 1.62552795 0.00565979 2.46292114 0.00857544 C5.04053925 0.01970631 7.61780069 0.04479735 10.1953125 0.0703125 C11.95051579 0.08035149 13.70572456 0.08947573 15.4609375 0.09765625 C19.74753176 0.11962235 24.0338618 0.15410272 28.3203125 0.1953125 C28.40183594 2.73763592 28.46104966 5.27730452 28.5078125 7.8203125 C28.53294922 8.53316406 28.55808594 9.24601562 28.58398438 9.98046875 C28.66266879 15.69820256 27.43730069 19.72141868 23.62890625 24.171875 C14.54689396 32.17314679 6.09393481 33.98427758 -5.73828125 33.5078125 C-12.41918779 32.97810732 -16.55112741 31.75362755 -21.1171875 26.6328125 C-24.10712955 22.84446631 -25.03814241 20.3212742 -24.95703125 15.35546875 C-24.30008646 10.23870157 -21.73828114 7.04678999 -17.8046875 3.8828125 C-11.74643875 0.61135818 -6.74186549 -0.08941003 0 0 Z " fill="#050507" transform="translate(1233.6796875,490.8046875)"></path>
<path d="M0 0 C4.40079652 2.65708469 7.17285267 5.28373512 9.3125 10 C10.36843261 15.68695133 10.41809373 21.09559368 7.1875 26.0625 C3.79270809 29.91808083 0.66459376 31.74117263 -4.52734375 32.3125 C-9.36537176 32.50386823 -12.78315167 32.43602509 -17.1875 30.3125 C-22.30907234 25.57504559 -24.42805163 22.50255306 -24.9375 15.625 C-24.53260933 9.7540853 -22.46812429 6.48773376 -18.125 2.6875 C-12.39698547 -2.00577643 -7.060134 -1.91461261 0 0 Z " fill="#F6F6F6" transform="translate(1071.6875,372)"></path>
<path d="M0 0 C0.33 0 0.66 0 1 0 C1.33 9.57 1.66 19.14 2 29 C11.77679752 23.85875303 19.77290314 19.00478051 27.64453125 11.28515625 C30.51995692 8.49556418 32.06163666 7.0563018 36.125 6.8125 C39 7 39 7 40 8 C40.46528475 12.65284745 40.11250553 16.24789335 37.5703125 20.265625 C34.90423125 23.21025205 31.53312036 24.97064781 28.140625 26.984375 C22.82935223 30.3931023 18.18248241 34.57741325 13.44677734 38.73242188 C12.18727528 39.83592081 10.91682345 40.92689735 9.64453125 42.015625 C5.71389071 45.39126214 2.06306932 48.91045952 -1.45703125 52.71484375 C-3 54 -3 54 -6 54 C-7.95579207 49.95301487 -8.14444256 47.07804887 -7.75 42.625 C-7.64300781 41.39265625 -7.53601563 40.1603125 -7.42578125 38.890625 C-7.00418933 35.03828047 -6.48608436 31.21114386 -5.9375 27.375 C-5.01790054 20.86968529 -4.78009214 14.56058455 -5 8 C-4.34 8 -3.68 8 -3 8 C-2.67 10.31 -2.34 12.62 -2 15 C-1.67 15 -1.34 15 -1 15 C-0.67 10.05 -0.34 5.1 0 0 Z " fill="#010B0C" transform="translate(585,542)"></path>
<path d="M0 0 C3.82368977 0.81976315 5.61642518 3.19718688 8.03515625 6.0703125 C8.75795776 6.89245239 8.75795776 6.89245239 9.49536133 7.73120117 C10.89845179 9.33214831 12.28245504 10.94750199 13.66015625 12.5703125 C19.38988166 19.29063876 25.3481559 25.52911971 32.66015625 30.5703125 C33.32015625 30.5703125 33.98015625 30.5703125 34.66015625 30.5703125 C35.32015625 29.9103125 35.98015625 29.2503125 36.66015625 28.5703125 C36.78390625 29.6634375 36.90765625 30.7565625 37.03515625 31.8828125 C37.41480426 35.64413052 37.41480426 35.64413052 39.66015625 38.5703125 C39.92578125 40.76171875 39.92578125 40.76171875 39.91015625 43.1328125 C39.91789062 44.31037109 39.91789062 44.31037109 39.92578125 45.51171875 C39.66015625 47.5703125 39.66015625 47.5703125 37.66015625 49.5703125 C33.90764663 49.29895333 32.34499051 47.46047853 29.91015625 44.7578125 C25.25177477 39.92291903 20.15703161 36.05979115 14.76367188 32.10449219 C9.36833502 28.13792987 4.21314089 23.96663602 -0.88671875 19.62890625 C-3.26062399 17.57680983 -3.26062399 17.57680983 -5.6328125 15.9609375 C-7.33984375 14.5703125 -7.33984375 14.5703125 -7.90234375 11.8828125 C-7.08408444 7.06417435 -5.18503509 1.2637982 0 0 Z " fill="#00090A" transform="translate(267.33984375,548.4296875)"></path>
<path d="M0 0 C3.37638013 0.32123455 4.89898245 1.60716908 7.125 4.0625 C9.99918606 7.1308032 13.02089891 9.49223812 16.4375 11.9375 C20.80987757 15.31765876 20.80987757 15.31765876 21.63671875 18.28515625 C21.625 20.5 21.625 20.5 21 24 C11.94461457 19.82059134 4.24479699 12.72603375 -3 6 C-2.42655063 3.13275314 -2.1385485 2.1385485 0 0 Z " fill="#000B0A" transform="translate(283,517)"></path>
<path d="M0 0 C5.445 1.485 5.445 1.485 11 3 C12.32 3.33 13.64 3.66 15 4 C15 7.3 15 10.6 15 14 C14.67 14 14.34 14 14 14 C13.34 11.36 12.68 8.72 12 6 C7.545 5.01 7.545 5.01 3 4 C1.77728535 11.8903305 1.94330865 19.65827982 2.0390625 27.625 C2.08673525 34.15616697 1.81326281 40.51749669 1 47 C0.67 47 0.34 47 0 47 C0 31.49 0 15.98 0 0 Z " fill="#00CEA6" transform="translate(337,461)"></path>
<path d="M0 0 C4.3395502 0.86791004 5.56791872 3.10935466 7.9609375 6.6796875 C9.125 8.625 9.125 8.625 10.125 10.625 C7.6875 9.875 7.6875 9.875 5.125 8.625 C4.3125 6.5 4.3125 6.5 4.125 4.625 C3.465 4.625 2.805 4.625 2.125 4.625 C2.125 3.965 2.125 3.305 2.125 2.625 C-1.835 3.285 -5.795 3.945 -9.875 4.625 C-10.54923346 7.99616732 -10.99953311 10.38960142 -10.98852539 13.6809082 C-10.98844986 14.44131912 -10.98837433 15.20173004 -10.98829651 15.98518372 C-10.98313522 16.7905809 -10.97797394 17.59597809 -10.97265625 18.42578125 C-10.9712413 19.26215622 -10.96982635 20.09853119 -10.96836853 20.96025085 C-10.96279184 23.619371 -10.95024365 26.2784055 -10.9375 28.9375 C-10.93248199 30.74544149 -10.92791961 32.5533843 -10.92382812 34.36132812 C-10.91283004 38.78258484 -10.8955815 43.20377793 -10.875 47.625 C-11.205 47.625 -11.535 47.625 -11.875 47.625 C-12.67492991 42.02272268 -13.011767 36.62298115 -12.97265625 30.96875 C-12.9712413 30.18101196 -12.96982635 29.39327393 -12.96836853 28.58166504 C-12.96282612 26.09606936 -12.95028485 23.61056789 -12.9375 21.125 C-12.93247754 19.42708465 -12.92791595 17.72916786 -12.92382812 16.03125 C-12.91287564 11.89579771 -12.89565166 7.76041476 -12.875 3.625 C-13.865 3.295 -14.855 2.965 -15.875 2.625 C-10.59741332 1.65440935 -5.29708485 0.85436852 0 0 Z " fill="#01CE9E" transform="translate(455.875,487.375)"></path>
<path d="M0 0 C0.66 0 1.32 0 2 0 C6 6.5 6 6.5 6 11 C6.66 11 7.32 11 8 11 C9.53372142 13.95182453 11.04972694 16.91239243 12.5625 19.875 C13.00013672 20.71675781 13.43777344 21.55851562 13.88867188 22.42578125 C14.29794922 23.23144531 14.70722656 24.03710938 15.12890625 24.8671875 C15.51119385 25.61081543 15.89348145 26.35444336 16.28735352 27.12060547 C16.52252686 27.74080566 16.7577002 28.36100586 17 29 C16.67 29.66 16.34 30.32 16 31 C13.02404533 28.44918171 11.55997434 25.56565563 10 22 C10 21.01 10 20.02 10 19 C9.34 19 8.68 19 8 19 C6.99539469 16.87717331 5.99644398 14.75166979 5 12.625 C4.443125 11.44164062 3.88625 10.25828125 3.3125 9.0390625 C2 6 2 6 2 4 C1.34 4 0.68 4 0 4 C0 2.68 0 1.36 0 0 Z " fill="#00B58C" transform="translate(609,482)"></path>
<path d="M0 0 C0.33 0 0.66 0 1 0 C1.33 8.91 1.66 17.82 2 27 C-5.28862636 28.21477106 -11.73507819 28.49024037 -19 27 C-18.67 26.34 -18.34 25.68 -18 25 C-15.75006641 24.97292861 -13.50003905 24.95357171 -11.25 24.9375 C-9.99703125 24.92589844 -8.7440625 24.91429687 -7.453125 24.90234375 C-4 25 -4 25 0 26 C0 17.42 0 8.84 0 0 Z " fill="#343434" transform="translate(1175,423)"></path>
<path d="M0 0 C2.99220268 1.36370299 5.29026529 2.94908083 7.75 5.125 C8.67039062 5.93324219 8.67039062 5.93324219 9.609375 6.7578125 C10.06828125 7.16773438 10.5271875 7.57765625 11 8 C10.01 8.495 10.01 8.495 9 9 C8.67 9.66 8.34 10.32 8 11 C7 13 7 13 5 14 C4.34 13.34 3.68 12.68 3 12 C3 10.68 3 9.36 3 8 C2.34 8 1.68 8 1 8 C0.67 5.36 0.34 2.72 0 0 Z " fill="#019B8F" transform="translate(350,545)"></path>
<path d="M0 0 C0.99 0.66 1.98 1.32 3 2 C2.34 3.32 1.68 4.64 1 6 C0.34 5.34 -0.32 4.68 -1 4 C-3.08429193 4.78913943 -5.16739869 5.58140963 -7.25 6.375 C-8.41015625 6.81585938 -9.5703125 7.25671875 -10.765625 7.7109375 C-13.26209781 8.70590855 -15.62904947 9.74410046 -18 11 C-18.99 10.34 -19.98 9.68 -21 9 C-17.57226856 7.43591115 -14.13158207 5.90270764 -10.6875 4.375 C-9.71103516 3.92898438 -8.73457031 3.48296875 -7.72851562 3.0234375 C-6.79072266 2.6109375 -5.85292969 2.1984375 -4.88671875 1.7734375 C-3.59060669 1.19215088 -3.59060669 1.19215088 -2.26831055 0.59912109 C-1.51976807 0.40141113 -0.77122559 0.20370117 0 0 Z " fill="#01CC93" transform="translate(601,466)"></path>
<path d="M0 0 C0.99 0.33 1.98 0.66 3 1 C2.34 1.66 1.68 2.32 1 3 C0.62904292 5.42246595 0.62904292 5.42246595 0.5859375 8.2265625 C0.54726563 9.2578125 0.50859375 10.2890625 0.46875 11.3515625 C0.4378125 12.43179688 0.406875 13.51203125 0.375 14.625 C0.33632813 15.71296875 0.29765625 16.8009375 0.2578125 17.921875 C0.16333753 20.61441165 0.07777569 23.30693757 0 26 C-2.53054337 23.46945663 -2.25683229 22.56451118 -2.265625 19.0625 C-2.26820313 18.08539062 -2.27078125 17.10828125 -2.2734375 16.1015625 C-2.26570312 15.07804688 -2.25796875 14.05453125 -2.25 13 C-2.25773438 11.97648438 -2.26546875 10.95296875 -2.2734375 9.8984375 C-2.27085937 8.92132812 -2.26828125 7.94421875 -2.265625 6.9375 C-2.26336914 6.03902344 -2.26111328 5.14054688 -2.25878906 4.21484375 C-2 2 -2 2 0 0 Z " fill="#01BBA8" transform="translate(588,540)"></path>
<path d="M0 0 C1.12148438 0.30744141 1.12148438 0.30744141 2.265625 0.62109375 C3.25046875 0.89050781 4.2353125 1.15992188 5.25 1.4375 C6.71179688 1.83775391 6.71179688 1.83775391 8.203125 2.24609375 C10.46232931 2.85506921 12.73002095 3.43250524 15 4 C15 7.3 15 10.6 15 14 C14.67 14 14.34 14 14 14 C13.34 11.36 12.68 8.72 12 6 C7.545 5.01 7.545 5.01 3 4 C2.34 5.32 1.68 6.64 1 8 C0.67 8 0.34 8 0 8 C0 5.36 0 2.72 0 0 Z " fill="#00CA96" transform="translate(337,461)"></path>
<path d="M0 0 C-1.55603771 3.81936528 -3.95604931 6.26044438 -7 9 C-7.66 9 -8.32 9 -9 9 C-9.226875 9.5775 -9.45375 10.155 -9.6875 10.75 C-11.33038023 13.5663661 -13.39533227 15.08077114 -16 17 C-16.66 16.67 -17.32 16.34 -18 16 C-15.38308836 13.32529045 -12.75518292 10.66165519 -10.125 8 C-9.00544922 6.8553125 -9.00544922 6.8553125 -7.86328125 5.6875 C-7.14785156 4.965625 -6.43242187 4.24375 -5.6953125 3.5 C-5.03547363 2.8296875 -4.37563477 2.159375 -3.69580078 1.46875 C-2 0 -2 0 0 0 Z " fill="#02A99C" transform="translate(405,562)"></path>
<path d="M0 0 C2 3 2 3 3 8 C-7.56 8 -18.12 8 -29 8 C-29 7.67 -29 7.34 -29 7 C-19.76 6.67 -10.52 6.34 -1 6 C-0.67 4.02 -0.34 2.04 0 0 Z " fill="#BEBEBF" transform="translate(907,535)"></path>
<path d="M0 0 C4.12751449 0.60698743 7.3321148 2.03810791 11 4 C8.39417629 4.93065133 7.35801776 5.14917407 4.75 4.0625 C4.1725 3.711875 3.595 3.36125 3 3 C0.30537425 5.51498404 -1.44708439 7.6723237 -3 11 C-3.66 11.66 -4.32 12.32 -5 13 C-4.48474397 7.71862571 -2.74522883 4.42778844 0 0 Z " fill="#01CF99" transform="translate(286,466)"></path>
<path d="M0 0 C0.33 0 0.66 0 1 0 C1.21900295 3.9827086 1.4154378 7.96586413 1.59204102 11.95068359 C1.68581334 13.96379077 1.79685157 15.97606988 1.90820312 17.98828125 C2.21324651 25.12988525 2.20231983 30.54596724 -1 37 C-2.25157949 33.38432592 -1.6853469 30.71437905 -1 27 C-0.85950381 24.83792901 -0.7557747 22.67324088 -0.68359375 20.5078125 C-0.64169922 19.30898438 -0.59980469 18.11015625 -0.55664062 16.875 C-0.51732422 15.6375 -0.47800781 14.4 -0.4375 13.125 C-0.39431641 11.86429687 -0.35113281 10.60359375 -0.30664062 9.3046875 C-0.20090898 6.20322577 -0.09881429 3.10168855 0 0 Z " fill="#008F51" transform="translate(592,267)"></path>
<path d="M0 0 C0.33 1.32 0.66 2.64 1 4 C-0.09283577 5.03295436 -1.19970579 6.05107835 -2.3125 7.0625 C-2.92738281 7.63097656 -3.54226563 8.19945312 -4.17578125 8.78515625 C-4.77777344 9.18605469 -5.37976563 9.58695313 -6 10 C-6.99 9.67 -7.98 9.34 -9 9 C-9.99 9 -10.98 9 -12 9 C-8.04 6.03 -4.08 3.06 0 0 Z " fill="#001715" transform="translate(408,554)"></path>
<path d="M0 0 C2.9679116 2.91479461 5.14524537 6.29049074 7 10 C4.5625 9.25 4.5625 9.25 2 8 C1.1875 5.875 1.1875 5.875 1 4 C0.34 4 -0.32 4 -1 4 C-1 3.34 -1 2.68 -1 2 C-2.258125 2.20625 -3.51625 2.4125 -4.8125 2.625 C-8.4014758 3.21335669 -8.75073878 3.16617415 -12 1 C-7.86284904 -0.00294569 -4.22874455 -0.66769651 0 0 Z " fill="#01C985" transform="translate(459,488)"></path>
<path d="M0 0 C-6.06224407 3.32445643 -13.13938387 4.36108506 -20 4 C-19.67 3.34 -19.34 2.68 -19 2 C-16.54869706 1.32877471 -14.17728441 0.78530284 -11.6875 0.3125 C-11.01009766 0.17005859 -10.33269531 0.02761719 -9.63476562 -0.11914062 C-6.15916088 -0.80203071 -3.36221357 -1.28784016 0 0 Z " fill="#01C283" transform="translate(484,433)"></path>
<path d="M0 0 C0.66 0.33 1.32 0.66 2 1 C1.67 1.66 1.34 2.32 1 3 C0.34 3 -0.32 3 -1 3 C-1.33 3.99 -1.66 4.98 -2 6 C-3.671875 7.6484375 -3.671875 7.6484375 -5.75 9.375 C-8.99668841 12.12534216 -12.03905179 14.94652216 -15 18 C-15.66 17.67 -16.32 17.34 -17 17 C-11.39 11.39 -5.78 5.78 0 0 Z " fill="#201F20" transform="translate(1026,431)"></path>
<path d="M0 0 C2.86867231 1.38264837 5.56024032 2.92148553 8.25 4.625 C8.95640625 5.07101562 9.6628125 5.51703125 10.390625 5.9765625 C10.92171875 6.31429687 11.4528125 6.65203125 12 7 C11.01 7.495 11.01 7.495 10 8 C9.67 8.99 9.34 9.98 9 11 C7.33333333 9.33333333 5.66666667 7.66666667 4 6 C3.236875 5.278125 2.47375 4.55625 1.6875 3.8125 C0 2 0 2 0 0 Z " fill="#00231C" transform="translate(488,552)"></path>
<path d="M0 0 C0 0.33 0 0.66 0 1 C-5.94 1.33 -11.88 1.66 -18 2 C-17.67 1.01 -17.34 0.02 -17 -1 C-10.90367577 -2.32528788 -6.02232181 -1.46619907 0 0 Z " fill="#00ACA0" transform="translate(445,582)"></path>
<path d="M0 0 C0.33 0 0.66 0 1 0 C1.02578125 0.83144531 1.0515625 1.66289063 1.078125 2.51953125 C1.13484375 3.60621094 1.1915625 4.69289063 1.25 5.8125 C1.29640625 6.89144531 1.3428125 7.97039063 1.390625 9.08203125 C1.72954022 12.11744232 1.72954022 12.11744232 4.046875 13.88671875 C4.69140625 14.25410156 5.3359375 14.62148438 6 15 C4.02 15.66 2.04 16.32 0 17 C0 11.39 0 5.78 0 0 Z " fill="#01B0AF" transform="translate(501,608)"></path>
<path d="M0 0 C0 2.97 0 5.94 0 9 C-0.99 9.495 -0.99 9.495 -2 10 C-2.33 8.02 -2.66 6.04 -3 4 C-4.65 3.67 -6.3 3.34 -8 3 C-8 2.34 -8 1.68 -8 1 C-5.10765685 0.17361624 -3.11257569 0 0 0 Z " fill="#00D591" transform="translate(551,462)"></path>
<path d="M0 0 C0.66 0.33 1.32 0.66 2 1 C1.401875 1.268125 0.80375 1.53625 0.1875 1.8125 C-2.01773876 2.8560011 -2.01773876 2.8560011 -3.375 4.5 C-5.70698342 6.65260008 -7.93574529 7.29777496 -11 8 C-11.99 7.34 -12.98 6.68 -14 6 C-11.71220962 4.96959833 -9.42048864 3.95047982 -7.125 2.9375 C-6.47402344 2.64294922 -5.82304688 2.34839844 -5.15234375 2.04492188 C-3.45989459 1.30338487 -1.73131425 0.64560999 0 0 Z " fill="#022A1F" transform="translate(588,457)"></path>
<path d="M0 0 C1.32 0 2.64 0 4 0 C4 0.66 4 1.32 4 2 C3.34 2.66 2.68 3.32 2 4 C1.75712511 6.44012949 1.75712511 6.44012949 1.875 9.125 C1.89304687 10.03507812 1.91109375 10.94515625 1.9296875 11.8828125 C1.95289063 12.58148438 1.97609375 13.28015625 2 14 C1.01 14.495 1.01 14.495 0 15 C0 10.05 0 5.1 0 0 Z " fill="#01DCA3" transform="translate(570,479)"></path>
<path d="M0 0 C-2.6210121 1.19706817 -5.24614696 2.38288646 -7.875 3.5625 C-8.62136719 3.90474609 -9.36773438 4.24699219 -10.13671875 4.59960938 C-12.06549332 5.45973857 -14.0311033 6.23616798 -16 7 C-16.66 6.67 -17.32 6.34 -18 6 C-15.75692972 4.79749842 -13.5071209 3.6130838 -11.25 2.4375 C-10.29867188 1.92413086 -10.29867188 1.92413086 -9.328125 1.40039062 C-5.72718297 -0.45634511 -3.8522558 -1.27301557 0 0 Z " fill="#CCCBCC" transform="translate(1219,424)"></path>
<path d="M0 0 C4.455 0.99 4.455 0.99 9 2 C9 5.3 9 8.6 9 12 C7 10 7 10 6.75 7.0625 C6.305813 3.69308727 6.305813 3.69308727 2.9375 2.125 C1.968125 1.75375 0.99875 1.3825 0 1 C0 0.67 0 0.34 0 0 Z " fill="#00D5A3" transform="translate(311,477)"></path>
<path d="M0 0 C-3.04120692 1.77504706 -5.04674654 2.21305767 -8.546875 1.9765625 C-9.81337891 1.89921875 -9.81337891 1.89921875 -11.10546875 1.8203125 C-11.97816406 1.75585938 -12.85085938 1.69140625 -13.75 1.625 C-14.63816406 1.56828125 -15.52632812 1.5115625 -16.44140625 1.453125 C-18.62846332 1.31202454 -20.8143069 1.1606567 -23 1 C-23 0.67 -23 0.34 -23 0 C-19.91722144 -0.1974877 -16.8337715 -0.38123332 -13.75 -0.5625 C-12.87730469 -0.61857422 -12.00460937 -0.67464844 -11.10546875 -0.73242188 C-10.26113281 -0.78076172 -9.41679688 -0.82910156 -8.546875 -0.87890625 C-7.77182617 -0.9260376 -6.99677734 -0.97316895 -6.19824219 -1.02172852 C-3.96887415 -0.99969234 -2.13101433 -0.6303897 0 0 Z M-7 2 C-4 3 -4 3 -4 3 Z " fill="#555556" transform="translate(1240,545)"></path>
<path d="M0 0 C1.08892712 2.83121051 0.96109941 4.16532751 0.25 7.1875 C-0.36875 8.5796875 -0.36875 8.5796875 -1 10 C-1.99 10.33 -2.98 10.66 -4 11 C-3.56179109 6.44262737 -3.14958831 3.42346555 0 0 Z " fill="#00E298" transform="translate(1410,380)"></path>
<path d="M0 0 C0.80050781 0.12761719 1.60101563 0.25523437 2.42578125 0.38671875 C3.23402344 0.50660156 4.04226563 0.62648438 4.875 0.75 C5.48988281 0.85699219 6.10476563 0.96398437 6.73828125 1.07421875 C6.73828125 1.73421875 6.73828125 2.39421875 6.73828125 3.07421875 C2.77828125 3.07421875 -1.18171875 3.07421875 -5.26171875 3.07421875 C-2.26171875 0.07421875 -2.26171875 0.07421875 0 0 Z " fill="#01A69B" transform="translate(483.26171875,588.92578125)"></path>
<path d="M0 0 C-2.35307813 2.35307813 -3.59680647 2.54628975 -6.8125 3.1875 C-7.66457031 3.36667969 -8.51664062 3.54585937 -9.39453125 3.73046875 C-12.17158136 4.0177498 -14.30662196 3.68180665 -17 3 C-17 2.67 -17 2.34 -17 2 C-5.47835991 -0.29612756 -5.47835991 -0.29612756 0 0 Z " fill="#012D24" transform="translate(459,553)"></path>
<path d="M0 0 C0.66 0 1.32 0 2 0 C2.86375896 1.61992165 3.71575854 3.24611861 4.5625 4.875 C5.03816406 5.77992188 5.51382813 6.68484375 6.00390625 7.6171875 C6.33261719 8.40351563 6.66132812 9.18984375 7 10 C6.67 10.66 6.34 11.32 6 12 C3.02404533 9.44918171 1.55997434 6.56565563 0 3 C0 2.01 0 1.02 0 0 Z " fill="#00A785" transform="translate(619,501)"></path>
<path d="M0 0 C-1.09601169 1.00893131 -2.20213918 2.00688225 -3.3125 3 C-4.23482422 3.8353125 -4.23482422 3.8353125 -5.17578125 4.6875 C-7 6 -7 6 -10 6 C-8.20404732 1.26521567 -5.07984355 -1.69328118 0 0 Z " fill="#01ED97" transform="translate(583,395)"></path>
<path d="M0 0 C0.99 0.33 1.98 0.66 3 1 C0.69 3.64 -1.62 6.28 -4 9 C-4.99 8.34 -5.98 7.68 -7 7 C-4.69 4.69 -2.38 2.38 0 0 Z " fill="#02E696" transform="translate(283,390)"></path>
<path d="M0 0 C1.65 0 3.3 0 5 0 C5.33 1.65 5.66 3.3 6 5 C5.01 5 4.02 5 3 5 C2.01 5.33 1.02 5.66 0 6 C0 4.02 0 2.04 0 0 Z " fill="#00BEAD" transform="translate(565,539)"></path>
<path d="M0 0 C2.475 0.99 2.475 0.99 5 2 C5 2.99 5 3.98 5 5 C0.25 6.125 0.25 6.125 -2 5 C-1.34 3.35 -0.68 1.7 0 0 Z " fill="#01D883" transform="translate(326,378)"></path>
<path d="M0 0 C0.33 0 0.66 0 1 0 C0.88490339 1.41750563 0.75746342 2.83401169 0.625 4.25 C0.55539062 5.03890625 0.48578125 5.8278125 0.4140625 6.640625 C-0.01507113 9.085877 -0.78600638 10.84836903 -2 13 C-2.66 13 -3.32 13 -4 13 C-3.52511102 11.01980257 -3.04497141 9.04086365 -2.5625 7.0625 C-2.29566406 5.96035156 -2.02882813 4.85820312 -1.75390625 3.72265625 C-1 1 -1 1 0 0 Z " fill="#01D58A" transform="translate(426,364)"></path>
<path d="M0 0 C-2.72478774 3.36591427 -6.06856792 4.44226276 -10 6 C-8.20404732 1.26521567 -5.07984355 -1.69328118 0 0 Z " fill="#00130B" transform="translate(521,405)"></path>
<path d="M0 0 C2.125 0.375 2.125 0.375 4 1 C3 4 3 4 0 6 C-0.99 6 -1.98 6 -3 6 C-2.42655063 3.13275314 -2.1385485 2.1385485 0 0 Z " fill="#01EF9E" transform="translate(433,358)"></path>
<path d="M0 0 C0 0.66 0 1.32 0 2 C-3.96 3.65 -7.92 5.3 -12 7 C-12 6.34 -12 5.68 -12 5 C-10.68 4.67 -9.36 4.34 -8 4 C-8 3.34 -8 2.68 -8 2 C-5.09399739 0.74335022 -3.20395416 0 0 0 Z " fill="#0D0E0E" transform="translate(1217,421)"></path>
<path d="M0 0 C4.38889325 0.66498383 7.9811485 2.18757677 12 4 C11.67 4.66 11.34 5.32 11 6 C9.5410574 5.52269162 8.08286504 5.04308958 6.625 4.5625 C5.81289063 4.29566406 5.00078125 4.02882813 4.1640625 3.75390625 C2 3 2 3 0 2 C0 1.34 0 0.68 0 0 Z " fill="#01C99A" transform="translate(299,472)"></path>
<path d="M0 0 C-0.33 0.99 -0.66 1.98 -1 3 C-4.5625 4.1875 -4.5625 4.1875 -8 5 C-8.66 4.34 -9.32 3.68 -10 3 C-3.375 0 -3.375 0 0 0 Z M-10 5 C-8 6 -8 6 -8 6 Z " fill="#011F16" transform="translate(608,450)"></path>
<path d="M0 0 C-2.70537829 2.70537829 -5.41166434 3.74093486 -9 5 C-9.99 4.34 -10.98 3.68 -12 3 C-10.5682384 2.30062798 -9.12932968 1.61587282 -7.6875 0.9375 C-6.48673828 0.36322266 -6.48673828 0.36322266 -5.26171875 -0.22265625 C-3 -1 -3 -1 0 0 Z " fill="#02C18C" transform="translate(592,472)"></path>
<path d="M0 0 C2.62187494 1.04874998 3.79371361 1.64931313 5.25 4.125 C5.4975 4.74375 5.745 5.3625 6 6 C4.68 6.33 3.36 6.66 2 7 C1.34 4.69 0.68 2.38 0 0 Z " fill="#00B7A3" transform="translate(350,545)"></path>
<path d="M0 0 C0.33 0.99 0.66 1.98 1 3 C-1.31 4.98 -3.62 6.96 -6 9 C-6.66 8.67 -7.32 8.34 -8 8 C-5.36 5.36 -2.72 2.72 0 0 Z " fill="#03968C" transform="translate(395,570)"></path>
<path d="M0 0 C0.33 0 0.66 0 1 0 C1 2.64 1 5.28 1 8 C0.34 7.01 -0.32 6.02 -1 5 C-2.65 5.33 -4.3 5.66 -6 6 C-4 4 -2 2 0 0 Z " fill="#01A293" transform="translate(319,549)"></path>
<path d="M0 0 C-0.33 0.99 -0.66 1.98 -1 3 C-4.0625 4.1875 -4.0625 4.1875 -7 5 C-7.66 4.34 -8.32 3.68 -9 3 C-3.375 0 -3.375 0 0 0 Z " fill="#0C0C0D" transform="translate(1252,517)"></path>
<path d="M0 0 C0.66 0 1.32 0 2 0 C0.84414715 3.91211733 -0.35534962 6.8745041 -3 10 C-3.66 9.67 -4.32 9.34 -5 9 C-3.35 6.03 -1.7 3.06 0 0 Z " fill="#01CC9A" transform="translate(279,480)"></path>
<path d="M0 0 C4.12751449 0.60698743 7.3321148 2.03810791 11 4 C8.4782018 4.90064221 7.42696982 5.19407719 4.9375 4.0625 C4.298125 3.711875 3.65875 3.36125 3 3 C2.01 3 1.02 3 0 3 C0 2.01 0 1.02 0 0 Z " fill="#00DCA5" transform="translate(286,466)"></path>
<path d="M0 0 C0.33 0.99 0.66 1.98 1 3 C1.66 3.33 2.32 3.66 3 4 C1.7260411 6.03833424 0.38938077 8.03852126 -1 10 C-1.66 10 -2.32 10 -3 10 C-2.01 6.7 -1.02 3.4 0 0 Z " fill="#01D08A" transform="translate(1391,425)"></path>
<path d="M0 0 C-0.66 2.31 -1.32 4.62 -2 7 C-3.32 6.67 -4.64 6.34 -6 6 C-4.90218919 2.70656758 -3.7827394 0 0 0 Z " fill="#00D88F" transform="translate(400,397)"></path>
<path d="M0 0 C0.33 0 0.66 0 1 0 C2.38766322 6.05525768 1.49118146 9.32010626 -1 15 C-2.20220203 11.46905698 -1.79532349 8.87101018 -1.0625 5.25 C-0.86785156 4.26515625 -0.67320312 3.2803125 -0.47265625 2.265625 C-0.31667969 1.51796875 -0.16070313 0.7703125 0 0 Z " fill="#004B2A" transform="translate(592,289)"></path>
<path d="M0 0 C0.33 0 0.66 0 1 0 C1 1.98 1 3.96 1 6 C1.99 6.33 2.98 6.66 4 7 C3.67 8.32 3.34 9.64 3 11 C1.5 10 1.5 10 0 8 C-0.27345479 5.28153765 -0.13491285 2.74322801 0 0 Z " fill="#007272" transform="translate(361,593)"></path>
<path d="M0 0 C1.98 0.495 1.98 0.495 4 1 C3.71125 1.53625 3.4225 2.0725 3.125 2.625 C1.83288192 5.35280484 0.91441408 8.12612718 0 11 C-1.37432457 7.18243176 -0.67975039 3.92744671 0 0 Z " fill="#01E7A3" transform="translate(537,465)"></path>
<path d="M0 0 C0 0.99 0 1.98 0 3 C1.32 3.33 2.64 3.66 4 4 C2 5 2 5 -0.1640625 4.44140625 C-0.97617187 4.15136719 -1.78828125 3.86132812 -2.625 3.5625 C-3.44226563 3.27503906 -4.25953125 2.98757813 -5.1015625 2.69140625 C-5.72804688 2.46324219 -6.35453125 2.23507812 -7 2 C-4 0 -4 0 0 0 Z " fill="#01AE7E" transform="translate(341,444)"></path>
<path d="M0 0 C0.66 1.32 1.32 2.64 2 4 C0.35 5.65 -1.3 7.3 -3 9 C-3 5.30581799 -1.71820705 3.22163822 0 0 Z " fill="#01C789" transform="translate(332,425)"></path>
<path d="M0 0 C-0.95712891 0.16435547 -0.95712891 0.16435547 -1.93359375 0.33203125 C-2.75988281 0.49058594 -3.58617187 0.64914062 -4.4375 0.8125 C-5.26121094 0.96332031 -6.08492187 1.11414063 -6.93359375 1.26953125 C-7.61550781 1.51058594 -8.29742188 1.75164062 -9 2 C-9.33 2.99 -9.66 3.98 -10 5 C-10.99 4.34 -11.98 3.68 -13 3 C-11.5903653 2.29819469 -10.17192359 1.61406042 -8.75 0.9375 C-7.96109375 0.55464844 -7.1721875 0.17179687 -6.359375 -0.22265625 C-3.74006478 -1.08564091 -2.55144824 -0.93045933 0 0 Z " fill="#BBBABB" transform="translate(1157,423)"></path>
<path d="M0 0 C1.98 0 3.96 0 6 0 C1.375 4.875 1.375 4.875 -2 6 C-1.34 4.02 -0.68 2.04 0 0 Z " fill="#151617" transform="translate(791,506)"></path>
<path d="M0 0 C3.29714793 0.32971479 4.6226839 0.6226839 7 3 C4.21176345 4.0326802 3.1322726 4.04509293 0.25 3.0625 C-0.4925 2.711875 -1.235 2.36125 -2 2 C-1.34 1.34 -0.68 0.68 0 0 Z " fill="#29282A" transform="translate(1264,423)"></path>
<path d="M0 0 C0 3.63 0 7.26 0 11 C-0.33 11 -0.66 11 -1 11 C-1.185625 9.576875 -1.185625 9.576875 -1.375 8.125 C-1.71687177 4.91332809 -1.71687177 4.91332809 -4 3 C-1.125 0 -1.125 0 0 0 Z " fill="#01A297" transform="translate(581,551)"></path>
<path d="M0 0 C0.66 0.99 1.32 1.98 2 3 C1.125 6.1875 1.125 6.1875 0 9 C-0.99 9 -1.98 9 -3 9 C-2.01 6.03 -1.02 3.06 0 0 Z " fill="#02CB88" transform="translate(1387,436)"></path>
<path d="M0 0 C0.66 0 1.32 0 2 0 C1.8125 1.8125 1.8125 1.8125 1 4 C-1.5625 5.75 -1.5625 5.75 -4 7 C-4 6.01 -4 5.02 -4 4 C-3.34 4 -2.68 4 -2 4 C-2 3.34 -2 2.68 -2 2 C-1.34 2 -0.68 2 0 2 C0 1.34 0 0.68 0 0 Z " fill="#009CA3" transform="translate(625,597)"></path>
<path d="M0 0 C1.32 0.33 2.64 0.66 4 1 C4 1.66 4 2.32 4 3 C4.66 3 5.32 3 6 3 C5.67 3.99 5.34 4.98 5 6 C3.2925002 4.71937515 1.62626404 3.38232443 0 2 C0 1.34 0 0.68 0 0 Z " fill="#029398" transform="translate(250,587)"></path>
<path d="M0 0 C-2.5654594 2.5654594 -4.47686668 2.54046087 -8 3 C-8.33 2.34 -8.66 1.68 -9 1 C-5.57367167 -0.61798838 -3.61944899 -1.34053666 0 0 Z " fill="#001E14" transform="translate(521,457)"></path>
<path d="M0 0 C0.33 0.99 0.66 1.98 1 3 C-0.65 4.32 -2.3 5.64 -4 7 C-4 4 -4 4 -2 1.8125 C-1.34 1.214375 -0.68 0.61625 0 0 Z " fill="#0C0C0C" transform="translate(1032,425)"></path>
<path d="M0 0 C0 0.66 0 1.32 0 2 C-0.66 2 -1.32 2 -2 2 C-2 2.66 -2 3.32 -2 4 C-1.34 4.33 -0.68 4.66 0 5 C-1.32 5.33 -2.64 5.66 -4 6 C-4.33 4.68 -4.66 3.36 -5 2 C-2 0 -2 0 0 0 Z " fill="#01CA7F" transform="translate(485,375)"></path>
</svg>